<?xml version="1.0" standalone="no"?>
<!DOCTYPE svg PUBLIC "-//W3C//DTD SVG 20010904//EN"
 "http://www.w3.org/TR/2001/REC-SVG-20010904/DTD/svg10.dtd">
<svg version="1.0" xmlns="http://www.w3.org/2000/svg"
 width="260.000000pt" height="260.000000pt" viewBox="0 0 260.000000 260.000000"
 preserveAspectRatio="xMidYMid meet">
<metadata>
Created by potrace 1.14, written by Peter Selinger 2001-2017
</metadata>
<g transform="translate(0.000000,260.000000) scale(0.100000,-0.100000)"
fill="#000000" stroke="none">
<path d="M1580 2570 c-14 -17 -24 -36 -22 -41 1 -6 -2 -8 -8 -4 -21 13 -50 14
-50 0 0 -7 -7 -16 -16 -19 -8 -3 -12 -11 -8 -17 4 -8 3 -9 -4 -5 -7 4 -12 2
-12 -3 0 -6 -7 -11 -16 -11 -8 0 -13 -4 -10 -9 3 -5 -1 -12 -10 -15 -8 -3 -12
-10 -9 -16 3 -6 -1 -7 -10 -4 -11 5 -14 2 -9 -12 4 -11 4 -16 -1 -12 -4 4 -16
3 -26 -3 -13 -7 -19 -6 -19 1 0 6 -5 8 -10 5 -6 -4 -8 -11 -5 -16 4 -5 1 -9
-5 -9 -6 0 -9 -4 -5 -9 3 -6 -3 -8 -13 -6 -16 3 -19 -2 -17 -31 1 -26 -2 -34
-16 -34 -14 0 -17 -6 -13 -26 3 -16 1 -23 -6 -19 -5 3 -7 0 -4 -8 3 -9 -3 -17
-16 -20 -12 -3 -19 -10 -16 -16 4 -5 -3 -12 -14 -16 -11 -3 -20 -13 -20 -21 0
-8 -6 -13 -12 -12 -7 2 -12 -5 -12 -14 1 -10 -1 -17 -5 -16 -20 2 -31 -4 -31
-18 0 -10 -6 -14 -15 -10 -8 3 -14 2 -14 -2 4 -22 -2 -32 -13 -26 -10 6 -10 5
-1 -7 7 -8 9 -26 6 -39 -5 -17 -3 -21 6 -15 10 6 11 3 2 -12 -6 -11 -7 -24 -3
-28 4 -5 -1 -5 -11 -2 -11 4 -16 3 -12 -3 3 -6 1 -10 -4 -10 -7 0 -9 -14 -6
-35 2 -20 0 -33 -4 -30 -5 3 -7 -3 -4 -14 8 -30 -49 -23 -64 9 -6 14 -12 19
-12 12 -1 -10 -5 -10 -17 2 -8 9 -12 20 -9 26 4 6 3 10 -2 9 -4 -1 -15 -1 -23
0 -13 1 -13 2 0 12 11 7 12 12 3 15 -7 3 -9 13 -6 22 3 9 3 14 -2 10 -4 -4
-14 -3 -22 3 -10 9 -13 8 -13 -2 0 -8 -7 -6 -19 7 -10 10 -16 23 -13 28 3 5 0
6 -6 2 -6 -3 -15 2 -21 11 -6 10 -11 14 -11 9 0 -6 10 -20 22 -33 16 -17 18
-23 7 -23 -8 0 -20 5 -26 11 -7 7 -84 9 -226 7 -164 -2 -213 0 -206 9 7 8 4
10 -11 6 -13 -4 -19 -11 -16 -20 3 -8 2 -12 -2 -9 -4 2 -14 1 -22 -5 -12 -7
-12 -9 3 -9 17 0 17 -38 17 -737 -1 -656 1 -738 14 -745 9 -5 16 -16 16 -23 0
-10 10 -15 28 -15 28 0 52 -16 52 -34 0 -5 -3 -7 -6 -3 -3 3 -16 2 -29 -3 -12
-5 -26 -5 -31 -1 -5 4 -20 5 -34 0 -14 -4 -19 -7 -12 -8 7 -1 10 -6 6 -13 -5
-8 -2 -9 12 -4 10 4 16 4 12 1 -9 -10 24 -45 35 -38 6 3 7 1 3 -6 -4 -7 2 -15
16 -20 13 -6 19 -10 13 -11 -5 0 -3 -5 5 -10 13 -9 13 -11 0 -20 -11 -7 -11
-10 -2 -10 7 0 10 -5 7 -10 -8 -13 4 -52 15 -45 7 4 24 -22 22 -35 0 -3 8 -6
19 -6 10 0 19 4 19 9 0 5 7 4 15 -3 10 -8 15 -9 15 -1 0 6 9 4 19 -6 11 -9 17
-21 13 -27 -15 -25 -8 -33 29 -32 22 1 39 -3 39 -9 0 -5 4 -4 9 4 5 7 14 10
21 6 6 -4 20 2 31 14 12 12 15 21 8 21 -7 0 -9 3 -6 7 9 8 260 4 267 -5 3 -4
19 -7 37 -7 17 1 32 -1 31 -4 -2 -22 4 -32 20 -30 31 3 43 -1 37 -11 -5 -9 15
-15 38 -11 4 0 7 -5 7 -11 0 -9 4 -8 10 2 7 11 10 11 10 2 0 -10 5 -10 20 -2
14 8 20 8 20 0 0 -8 6 -8 20 0 14 8 20 8 20 0 0 -6 5 -8 10 -5 5 3 10 0 10 -8
0 -10 12 -15 35 -16 61 -3 65 -4 71 -23 3 -10 10 -18 15 -18 6 0 8 4 5 9 -4 5
5 4 19 -2 14 -7 25 -18 25 -24 0 -7 9 -13 20 -13 14 0 18 5 13 17 -4 11 -3 14
5 9 7 -4 12 -3 12 1 0 10 61 10 77 0 13 -8 56 27 45 38 -4 4 12 5 36 1 26 -3
42 -1 42 5 0 6 4 8 9 5 5 -3 12 4 16 17 3 12 8 17 11 11 8 -18 54 -5 47 14 -4
10 -2 13 5 8 7 -4 12 -2 12 4 0 6 10 8 25 4 19 -5 25 -2 25 10 0 9 5 16 11 16
5 0 7 4 4 10 -4 7 2 7 19 0 16 -6 27 -6 31 0 4 6 3 10 -1 10 -4 0 1 6 12 14
14 11 22 11 32 4 10 -9 14 -6 19 10 3 12 9 19 14 16 5 -3 9 -1 9 4 0 5 10 8
23 6 12 -1 32 -3 45 -3 13 -1 21 -5 18 -10 -3 -5 1 -14 9 -21 10 -9 15 -9 15
-1 0 6 10 21 22 33 23 23 32 58 15 58 -6 0 -6 5 0 13 6 8 1 20 -15 37 -14 14
-22 18 -18 10 4 -8 1 -7 -8 4 -8 10 -22 16 -31 13 -8 -4 -15 -2 -15 4 0 6 -4
8 -9 5 -5 -4 -7 4 -4 16 4 19 3 20 -6 8 -9 -13 -12 -12 -17 7 -4 13 -10 20
-15 17 -5 -3 -9 -1 -9 4 0 5 -14 6 -31 4 -25 -4 -30 -2 -24 9 7 11 6 12 -6 3
-15 -12 -101 -4 -169 16 -19 5 -69 10 -110 11 -108 1 -124 8 -128 48 -2 19 0
37 5 40 5 3 16 18 26 34 10 15 25 27 35 27 10 0 40 -23 67 -50 l50 -51 228 3
c125 2 227 2 227 1 0 -2 -8 -12 -17 -23 -15 -18 -30 -20 -118 -20 -55 0 -105
-4 -112 -8 -6 -4 30 -6 80 -6 51 1 97 -2 102 -6 10 -8 95 58 95 74 0 4 -3 5
-7 3 -5 -3 -7 319 -5 715 2 636 1 723 -13 744 -15 23 -19 24 -183 26 l-167 3
2 25 c1 14 0 18 -4 10 -11 -27 -25 -40 -37 -33 -15 10 -36 13 -35 5 3 -23 -3
-33 -16 -28 -12 4 -15 -6 -16 -59 0 -36 -1 -87 -1 -114 0 -27 2 -54 6 -60 4
-6 2 -11 -5 -11 -9 0 -9 -3 0 -14 9 -11 9 -15 -1 -18 -10 -4 -10 -8 1 -21 7
-10 10 -17 5 -17 -9 0 -9 -423 0 -446 3 -8 1 -14 -4 -14 -5 0 -7 -6 -4 -14 3
-8 1 -17 -5 -21 -6 -3 -11 -1 -11 5 0 6 -5 8 -10 5 -7 -4 -9 6 -7 29 3 22 0
36 -7 36 -8 0 -8 2 0 8 12 8 12 40 0 60 -4 6 -3 12 3 12 12 0 9 73 -4 82 -6 5
-6 8 2 8 12 0 12 37 -1 58 -4 7 -3 12 3 12 12 0 9 73 -4 82 -7 5 -7 8 0 8 11
0 12 140 1 158 -3 6 -3 13 2 15 9 6 8 109 -2 125 -4 7 -2 12 3 12 12 0 10 27
-2 48 -5 6 -4 12 1 12 5 0 8 50 6 110 -1 81 1 108 9 104 8 -5 7 -2 0 7 -7 7
-13 19 -13 27 0 8 5 10 13 6 9 -6 9 -4 1 7 -15 20 -16 61 -1 52 9 -5 9 -3 1 8
-6 8 -10 52 -9 109 3 117 3 118 15 100 8 -13 10 -13 14 0 3 8 5 33 3 55 l-2
40 -60 3 c-57 2 -61 1 -85 -28z m-681 -1266 c82 -78 97 -101 60 -91 -31 8 -44
-29 -29 -89 6 -27 14 -64 17 -82 5 -32 4 -33 -22 -26 l-28 7 7 -44 c4 -24 10
-58 13 -76 3 -18 11 -38 19 -44 8 -6 14 -20 14 -30 0 -13 -7 -17 -27 -16 -25
2 -28 -2 -31 -32 -4 -35 16 -82 56 -138 l23 -31 -23 -4 c-18 -2 -24 -10 -26
-39 -2 -21 3 -43 10 -50 13 -14 48 -66 48 -71 0 -2 -112 -3 -248 -3 -223 0
-250 2 -266 17 -10 10 -25 18 -33 18 -16 0 -53 27 -53 39 0 3 84 5 187 3 104
-2 198 0 211 3 l22 5 0 425 c0 259 4 425 9 425 6 0 46 -34 90 -76z"/>
<path d="M1960 2070 c-9 -6 -10 -10 -3 -10 6 0 15 5 18 10 8 12 4 12 -15 0z"/>
<path d="M2096 2072 c-3 -4 4 -9 15 -9 23 -2 25 3 4 10 -8 4 -16 3 -19 -1z"/>
<path d="M400 2060 c-9 -6 -10 -10 -3 -10 6 0 15 5 18 10 8 12 4 12 -15 0z"/>
<path d="M588 2063 c7 -3 16 -2 19 1 4 3 -2 6 -13 5 -11 0 -14 -3 -6 -6z"/>
<path d="M1858 2063 c6 -2 18 -2 25 0 6 3 1 5 -13 5 -14 0 -19 -2 -12 -5z"/>
<path d="M1908 2063 c6 -2 18 -2 25 0 6 3 1 5 -13 5 -14 0 -19 -2 -12 -5z"/>
<path d="M2028 2063 c7 -3 16 -2 19 1 4 3 -2 6 -13 5 -11 0 -14 -3 -6 -6z"/>
<path d="M2151 2053 c7 -12 15 -20 18 -17 3 2 -3 12 -13 22 -17 16 -18 16 -5
-5z"/>
<path d="M2190 2011 c0 -6 5 -13 10 -16 6 -3 10 1 10 9 0 9 -4 16 -10 16 -5 0
-10 -4 -10 -9z"/>
<path d="M2220 2000 c0 -5 5 -10 11 -10 5 0 7 5 4 10 -3 6 -8 10 -11 10 -2 0
-4 -4 -4 -10z"/>
<path d="M2220 1900 c0 -13 7 -20 20 -20 13 0 20 7 20 20 0 13 -7 20 -20 20
-13 0 -20 -7 -20 -20z"/>
</g>
</svg>
